<svg xmlns="http://www.w3.org/2000/svg" xmlns:xlink="http://www.w3.org/1999/xlink" viewBox="0 0 132 132"><defs><style>.cls-1{fill:none;}.cls-2{clip-path:url(#clip-path);}.cls-3{fill:#f5f5f5;}</style><clipPath id="clip-path" transform="translate(0 0)"><rect class="cls-1" width="132" height="132"/></clipPath></defs><title>waxexSticker</title><g id="Layer_2" data-name="Layer 2"><g id="Layer_4" data-name="Layer 4"><g id="border"><g id="Artwork_15" data-name="Artwork 15"><g class="cls-2"><g class="cls-2"><path class="cls-3" d="M66,0a66,66,0,1,0,66,66A66,66,0,0,0,66,0M35.77,76.05H32.36L28.94,62.6,25.37,76.05H22L17.52,56.8h3.73l2.48,12.84L27.41,56.8h2.91L34,69.64,36.47,56.8h3.74Zm19.67,0L54.34,73H46.67l-1.1,3.09H42L49.35,56.8h2.3L59,76.05Zm18.11,0-3.89-6.57-3.84,6.57H62l5.75-9.82L62.15,56.8H66L69.64,63l3.62-6.19h3.82l-5.52,9.44,5.81,9.81ZM95.1,60.3H85.83v4.44h7.81v3.5H85.83v4.45H95.1v3.36H82.2V56.8H95.1Zm15.45,15.75-3.88-6.57-3.85,6.57H99l5.74-9.82L99.16,56.8H103L106.64,63l3.62-6.19h3.83l-5.53,9.44,5.82,9.81Z" transform="translate(0 0)"/><polygon class="cls-3" points="47.87 69.6 53.13 69.6 50.5 62.24 47.87 69.6"/></g></g></g></g></g></g></svg>